<mxfile host="app.diagrams.net" modified="2024-03-14T13:24:23.789Z" agent="Mozilla/5.0 (Windows NT 10.0; Win64; x64) AppleWebKit/537.36 (KHTML, like Gecko) Chrome/122.0.0.0 Safari/537.36" etag="iry6-p_r2Oe11PBG85PF" version="24.0.4" type="github">
  <diagram name="Page-1" id="bHeleH2iJZLRtm8Bri4A">
    <mxGraphModel dx="1702" dy="945" grid="1" gridSize="10" guides="1" tooltips="1" connect="1" arrows="1" fold="1" page="1" pageScale="1" pageWidth="2000" pageHeight="2500" math="0" shadow="0">
      <root>
        <mxCell id="0" />
        <mxCell id="1" parent="0" />
        <mxCell id="oUUKeHMkKSvbWmKhPIZD-115" value="" style="group" vertex="1" connectable="0" parent="1">
          <mxGeometry x="390" y="290" width="790" height="540" as="geometry" />
        </mxCell>
        <mxCell id="oUUKeHMkKSvbWmKhPIZD-1" value="" style="rounded=1;whiteSpace=wrap;html=1;fillColor=#f5f5f5;fontColor=#333333;strokeColor=#666666;" vertex="1" parent="oUUKeHMkKSvbWmKhPIZD-115">
          <mxGeometry x="20" y="190" width="620" height="210" as="geometry" />
        </mxCell>
        <mxCell id="oUUKeHMkKSvbWmKhPIZD-2" value="" style="points=[[0,0],[0.25,0],[0.5,0],[0.75,0],[1,0],[1,0.25],[1,0.5],[1,0.75],[1,1],[0.75,1],[0.5,1],[0.25,1],[0,1],[0,0.75],[0,0.5],[0,0.25]];outlineConnect=0;gradientColor=none;html=1;whiteSpace=wrap;fontSize=12;fontStyle=0;container=1;pointerEvents=0;collapsible=0;recursiveResize=0;shape=mxgraph.aws4.group;grIcon=mxgraph.aws4.group_vpc2;strokeColor=#8C4FFF;fillColor=none;verticalAlign=top;align=left;spacingLeft=30;fontColor=#AAB7B8;dashed=0;" vertex="1" parent="oUUKeHMkKSvbWmKhPIZD-115">
          <mxGeometry x="140" y="40" width="130" height="130" as="geometry" />
        </mxCell>
        <mxCell id="oUUKeHMkKSvbWmKhPIZD-64" value="" style="group" vertex="1" connectable="0" parent="oUUKeHMkKSvbWmKhPIZD-2">
          <mxGeometry x="10" y="70" width="110" height="40" as="geometry" />
        </mxCell>
        <mxCell id="oUUKeHMkKSvbWmKhPIZD-14" value="" style="sketch=0;outlineConnect=0;fontColor=#232F3E;gradientColor=none;fillColor=#8C4FFF;strokeColor=none;dashed=0;verticalLabelPosition=bottom;verticalAlign=top;align=center;html=1;fontSize=12;fontStyle=0;aspect=fixed;pointerEvents=1;shape=mxgraph.aws4.elastic_network_interface;" vertex="1" parent="oUUKeHMkKSvbWmKhPIZD-64">
          <mxGeometry width="40" height="40" as="geometry" />
        </mxCell>
        <mxCell id="oUUKeHMkKSvbWmKhPIZD-15" value="" style="sketch=0;outlineConnect=0;fontColor=#232F3E;gradientColor=none;fillColor=#8C4FFF;strokeColor=none;dashed=0;verticalLabelPosition=bottom;verticalAlign=top;align=center;html=1;fontSize=12;fontStyle=0;aspect=fixed;pointerEvents=1;shape=mxgraph.aws4.elastic_network_interface;" vertex="1" parent="oUUKeHMkKSvbWmKhPIZD-64">
          <mxGeometry x="70" width="40" height="40" as="geometry" />
        </mxCell>
        <mxCell id="oUUKeHMkKSvbWmKhPIZD-17" value="" style="endArrow=none;html=1;rounded=0;fillColor=#dae8fc;strokeColor=#6c8ebf;" edge="1" parent="oUUKeHMkKSvbWmKhPIZD-64" source="oUUKeHMkKSvbWmKhPIZD-14" target="oUUKeHMkKSvbWmKhPIZD-15">
          <mxGeometry width="50" height="50" relative="1" as="geometry">
            <mxPoint x="180" y="150" as="sourcePoint" />
            <mxPoint x="230" y="100" as="targetPoint" />
          </mxGeometry>
        </mxCell>
        <mxCell id="oUUKeHMkKSvbWmKhPIZD-4" value="" style="points=[[0,0],[0.25,0],[0.5,0],[0.75,0],[1,0],[1,0.25],[1,0.5],[1,0.75],[1,1],[0.75,1],[0.5,1],[0.25,1],[0,1],[0,0.75],[0,0.5],[0,0.25]];outlineConnect=0;gradientColor=none;html=1;whiteSpace=wrap;fontSize=12;fontStyle=0;container=1;pointerEvents=0;collapsible=0;recursiveResize=0;shape=mxgraph.aws4.group;grIcon=mxgraph.aws4.group_vpc2;strokeColor=#8C4FFF;fillColor=none;verticalAlign=top;align=left;spacingLeft=30;fontColor=#AAB7B8;dashed=0;" vertex="1" parent="oUUKeHMkKSvbWmKhPIZD-115">
          <mxGeometry x="660" y="275" width="130" height="130" as="geometry" />
        </mxCell>
        <mxCell id="oUUKeHMkKSvbWmKhPIZD-13" value="" style="endArrow=none;dashed=1;html=1;dashPattern=1 3;strokeWidth=2;rounded=0;exitX=0;exitY=0.5;exitDx=0;exitDy=0;entryX=1;entryY=0.5;entryDx=0;entryDy=0;fillColor=#dae8fc;strokeColor=#6c8ebf;" edge="1" parent="oUUKeHMkKSvbWmKhPIZD-4">
          <mxGeometry width="50" height="50" relative="1" as="geometry">
            <mxPoint y="64.66000000000003" as="sourcePoint" />
            <mxPoint x="130" y="64.66000000000003" as="targetPoint" />
          </mxGeometry>
        </mxCell>
        <mxCell id="oUUKeHMkKSvbWmKhPIZD-94" value="" style="group" vertex="1" connectable="0" parent="oUUKeHMkKSvbWmKhPIZD-4">
          <mxGeometry x="40" y="15" width="40" height="100" as="geometry" />
        </mxCell>
        <mxCell id="oUUKeHMkKSvbWmKhPIZD-91" value="" style="sketch=0;outlineConnect=0;fontColor=#232F3E;gradientColor=none;fillColor=#8C4FFF;strokeColor=none;dashed=0;verticalLabelPosition=bottom;verticalAlign=top;align=center;html=1;fontSize=12;fontStyle=0;aspect=fixed;pointerEvents=1;shape=mxgraph.aws4.elastic_network_interface;" vertex="1" parent="oUUKeHMkKSvbWmKhPIZD-94">
          <mxGeometry width="40" height="40" as="geometry" />
        </mxCell>
        <mxCell id="oUUKeHMkKSvbWmKhPIZD-92" value="" style="sketch=0;outlineConnect=0;fontColor=#232F3E;gradientColor=none;fillColor=#8C4FFF;strokeColor=none;dashed=0;verticalLabelPosition=bottom;verticalAlign=top;align=center;html=1;fontSize=12;fontStyle=0;aspect=fixed;pointerEvents=1;shape=mxgraph.aws4.elastic_network_interface;" vertex="1" parent="oUUKeHMkKSvbWmKhPIZD-94">
          <mxGeometry y="60" width="40" height="40" as="geometry" />
        </mxCell>
        <mxCell id="oUUKeHMkKSvbWmKhPIZD-93" value="" style="endArrow=none;html=1;rounded=0;fillColor=#dae8fc;strokeColor=#6c8ebf;" edge="1" parent="oUUKeHMkKSvbWmKhPIZD-94" source="oUUKeHMkKSvbWmKhPIZD-91" target="oUUKeHMkKSvbWmKhPIZD-92">
          <mxGeometry width="50" height="50" relative="1" as="geometry">
            <mxPoint x="180" y="150" as="sourcePoint" />
            <mxPoint x="230" y="100" as="targetPoint" />
          </mxGeometry>
        </mxCell>
        <mxCell id="oUUKeHMkKSvbWmKhPIZD-5" value="" style="points=[[0,0],[0.25,0],[0.5,0],[0.75,0],[1,0],[1,0.25],[1,0.5],[1,0.75],[1,1],[0.75,1],[0.5,1],[0.25,1],[0,1],[0,0.75],[0,0.5],[0,0.25]];outlineConnect=0;gradientColor=none;html=1;whiteSpace=wrap;fontSize=12;fontStyle=0;container=1;pointerEvents=0;collapsible=0;recursiveResize=0;shape=mxgraph.aws4.group;grIcon=mxgraph.aws4.group_vpc2;strokeColor=#8C4FFF;fillColor=none;verticalAlign=top;align=left;spacingLeft=30;fontColor=#AAB7B8;dashed=0;" vertex="1" parent="oUUKeHMkKSvbWmKhPIZD-115">
          <mxGeometry x="310" y="40" width="130" height="130" as="geometry" />
        </mxCell>
        <mxCell id="oUUKeHMkKSvbWmKhPIZD-12" value="" style="endArrow=none;dashed=1;html=1;dashPattern=1 3;strokeWidth=1;rounded=0;exitX=0.5;exitY=1;exitDx=0;exitDy=0;entryX=0.5;entryY=0;entryDx=0;entryDy=0;fillColor=#dae8fc;strokeColor=#6c8ebf;" edge="1" parent="oUUKeHMkKSvbWmKhPIZD-5">
          <mxGeometry width="50" height="50" relative="1" as="geometry">
            <mxPoint x="64.79999999999995" y="130" as="sourcePoint" />
            <mxPoint x="64.79999999999995" as="targetPoint" />
          </mxGeometry>
        </mxCell>
        <mxCell id="oUUKeHMkKSvbWmKhPIZD-75" value="" style="group" vertex="1" connectable="0" parent="oUUKeHMkKSvbWmKhPIZD-5">
          <mxGeometry x="10" y="70" width="110" height="40" as="geometry" />
        </mxCell>
        <mxCell id="oUUKeHMkKSvbWmKhPIZD-76" value="" style="sketch=0;outlineConnect=0;fontColor=#232F3E;gradientColor=none;fillColor=#8C4FFF;strokeColor=none;dashed=0;verticalLabelPosition=bottom;verticalAlign=top;align=center;html=1;fontSize=12;fontStyle=0;aspect=fixed;pointerEvents=1;shape=mxgraph.aws4.elastic_network_interface;" vertex="1" parent="oUUKeHMkKSvbWmKhPIZD-75">
          <mxGeometry width="40" height="40" as="geometry" />
        </mxCell>
        <mxCell id="oUUKeHMkKSvbWmKhPIZD-77" value="" style="sketch=0;outlineConnect=0;fontColor=#232F3E;gradientColor=none;fillColor=#8C4FFF;strokeColor=none;dashed=0;verticalLabelPosition=bottom;verticalAlign=top;align=center;html=1;fontSize=12;fontStyle=0;aspect=fixed;pointerEvents=1;shape=mxgraph.aws4.elastic_network_interface;" vertex="1" parent="oUUKeHMkKSvbWmKhPIZD-75">
          <mxGeometry x="70" width="40" height="40" as="geometry" />
        </mxCell>
        <mxCell id="oUUKeHMkKSvbWmKhPIZD-78" value="" style="endArrow=none;html=1;rounded=0;fillColor=#dae8fc;strokeColor=#6c8ebf;" edge="1" parent="oUUKeHMkKSvbWmKhPIZD-75" source="oUUKeHMkKSvbWmKhPIZD-76" target="oUUKeHMkKSvbWmKhPIZD-77">
          <mxGeometry width="50" height="50" relative="1" as="geometry">
            <mxPoint x="180" y="150" as="sourcePoint" />
            <mxPoint x="230" y="100" as="targetPoint" />
          </mxGeometry>
        </mxCell>
        <mxCell id="oUUKeHMkKSvbWmKhPIZD-79" value="" style="endArrow=classic;html=1;rounded=1;entryX=0.225;entryY=-0.027;entryDx=0;entryDy=0;entryPerimeter=0;edgeStyle=elbowEdgeStyle;fillColor=#dae8fc;strokeColor=#6c8ebf;" edge="1" parent="oUUKeHMkKSvbWmKhPIZD-5">
          <mxGeometry width="50" height="50" relative="1" as="geometry">
            <mxPoint x="65.5" y="90" as="sourcePoint" />
            <mxPoint x="64.5" y="158" as="targetPoint" />
          </mxGeometry>
        </mxCell>
        <mxCell id="oUUKeHMkKSvbWmKhPIZD-7" value="" style="sketch=0;points=[[0,0,0],[0.25,0,0],[0.5,0,0],[0.75,0,0],[1,0,0],[0,1,0],[0.25,1,0],[0.5,1,0],[0.75,1,0],[1,1,0],[0,0.25,0],[0,0.5,0],[0,0.75,0],[1,0.25,0],[1,0.5,0],[1,0.75,0]];outlineConnect=0;fontColor=#232F3E;fillColor=#8C4FFF;strokeColor=#ffffff;dashed=0;verticalLabelPosition=bottom;verticalAlign=top;align=center;html=1;fontSize=12;fontStyle=0;aspect=fixed;shape=mxgraph.aws4.resourceIcon;resIcon=mxgraph.aws4.transit_gateway;" vertex="1" parent="oUUKeHMkKSvbWmKhPIZD-115">
          <mxGeometry y="180" width="50" height="50" as="geometry" />
        </mxCell>
        <mxCell id="oUUKeHMkKSvbWmKhPIZD-11" value="" style="endArrow=none;dashed=1;html=1;dashPattern=1 3;strokeWidth=1;rounded=0;exitX=0.5;exitY=1;exitDx=0;exitDy=0;entryX=0.5;entryY=0;entryDx=0;entryDy=0;fillColor=#dae8fc;strokeColor=#6c8ebf;" edge="1" parent="oUUKeHMkKSvbWmKhPIZD-115" source="oUUKeHMkKSvbWmKhPIZD-2" target="oUUKeHMkKSvbWmKhPIZD-2">
          <mxGeometry width="50" height="50" relative="1" as="geometry">
            <mxPoint x="160" y="90" as="sourcePoint" />
            <mxPoint x="210" y="40" as="targetPoint" />
          </mxGeometry>
        </mxCell>
        <mxCell id="oUUKeHMkKSvbWmKhPIZD-19" value="" style="endArrow=classic;html=1;rounded=1;entryX=0.225;entryY=-0.027;entryDx=0;entryDy=0;entryPerimeter=0;edgeStyle=elbowEdgeStyle;fillColor=#dae8fc;strokeColor=#6c8ebf;" edge="1" parent="oUUKeHMkKSvbWmKhPIZD-115" target="oUUKeHMkKSvbWmKhPIZD-21">
          <mxGeometry width="50" height="50" relative="1" as="geometry">
            <mxPoint x="205" y="130" as="sourcePoint" />
            <mxPoint x="270" y="150" as="targetPoint" />
          </mxGeometry>
        </mxCell>
        <mxCell id="oUUKeHMkKSvbWmKhPIZD-21" value="" style="rounded=1;whiteSpace=wrap;html=1;fillColor=#dae8fc;strokeColor=#6c8ebf;" vertex="1" parent="oUUKeHMkKSvbWmKhPIZD-115">
          <mxGeometry x="130" y="200" width="330" height="80" as="geometry" />
        </mxCell>
        <mxCell id="oUUKeHMkKSvbWmKhPIZD-22" value="" style="rounded=1;whiteSpace=wrap;html=1;fillColor=#fff2cc;strokeColor=#d6b656;" vertex="1" parent="oUUKeHMkKSvbWmKhPIZD-115">
          <mxGeometry x="130" y="300" width="480" height="80" as="geometry" />
        </mxCell>
        <mxCell id="oUUKeHMkKSvbWmKhPIZD-40" value="" style="shape=table;startSize=0;container=1;collapsible=0;childLayout=tableLayout;swimlaneFillColor=default;strokeWidth=0;" vertex="1" parent="oUUKeHMkKSvbWmKhPIZD-115">
          <mxGeometry x="420" y="310" width="180" height="60" as="geometry" />
        </mxCell>
        <mxCell id="oUUKeHMkKSvbWmKhPIZD-41" value="" style="shape=tableRow;horizontal=0;startSize=0;swimlaneHead=0;swimlaneBody=0;strokeColor=inherit;top=0;left=0;bottom=0;right=0;collapsible=0;dropTarget=0;fillColor=none;points=[[0,0.5],[1,0.5]];portConstraint=eastwest;" vertex="1" parent="oUUKeHMkKSvbWmKhPIZD-40">
          <mxGeometry width="180" height="20" as="geometry" />
        </mxCell>
        <mxCell id="oUUKeHMkKSvbWmKhPIZD-42" value="Route" style="shape=partialRectangle;html=1;whiteSpace=wrap;connectable=0;strokeColor=inherit;overflow=hidden;fillColor=#CCCCCC;top=0;left=0;bottom=0;right=0;pointerEvents=1;" vertex="1" parent="oUUKeHMkKSvbWmKhPIZD-41">
          <mxGeometry width="85" height="20" as="geometry">
            <mxRectangle width="85" height="20" as="alternateBounds" />
          </mxGeometry>
        </mxCell>
        <mxCell id="oUUKeHMkKSvbWmKhPIZD-43" value="Destination" style="shape=partialRectangle;html=1;whiteSpace=wrap;connectable=0;strokeColor=inherit;overflow=hidden;fillColor=#CCCCCC;top=0;left=0;bottom=0;right=0;pointerEvents=1;" vertex="1" parent="oUUKeHMkKSvbWmKhPIZD-41">
          <mxGeometry x="85" width="95" height="20" as="geometry">
            <mxRectangle width="95" height="20" as="alternateBounds" />
          </mxGeometry>
        </mxCell>
        <mxCell id="oUUKeHMkKSvbWmKhPIZD-44" value="" style="shape=tableRow;horizontal=0;startSize=0;swimlaneHead=0;swimlaneBody=0;strokeColor=inherit;top=0;left=0;bottom=0;right=0;collapsible=0;dropTarget=0;fillColor=none;points=[[0,0.5],[1,0.5]];portConstraint=eastwest;" vertex="1" parent="oUUKeHMkKSvbWmKhPIZD-40">
          <mxGeometry y="20" width="180" height="20" as="geometry" />
        </mxCell>
        <mxCell id="oUUKeHMkKSvbWmKhPIZD-45" value="10.230.0.0/16" style="shape=partialRectangle;html=1;whiteSpace=wrap;connectable=0;strokeColor=inherit;overflow=hidden;fillColor=none;top=0;left=0;bottom=0;right=0;pointerEvents=1;" vertex="1" parent="oUUKeHMkKSvbWmKhPIZD-44">
          <mxGeometry width="85" height="20" as="geometry">
            <mxRectangle width="85" height="20" as="alternateBounds" />
          </mxGeometry>
        </mxCell>
        <mxCell id="oUUKeHMkKSvbWmKhPIZD-46" value="vpc-att-shrd-conti" style="shape=partialRectangle;html=1;whiteSpace=wrap;connectable=0;strokeColor=inherit;overflow=hidden;fillColor=none;top=0;left=0;bottom=0;right=0;pointerEvents=1;" vertex="1" parent="oUUKeHMkKSvbWmKhPIZD-44">
          <mxGeometry x="85" width="95" height="20" as="geometry">
            <mxRectangle width="95" height="20" as="alternateBounds" />
          </mxGeometry>
        </mxCell>
        <mxCell id="oUUKeHMkKSvbWmKhPIZD-47" value="" style="shape=tableRow;horizontal=0;startSize=0;swimlaneHead=0;swimlaneBody=0;strokeColor=inherit;top=0;left=0;bottom=0;right=0;collapsible=0;dropTarget=0;fillColor=none;points=[[0,0.5],[1,0.5]];portConstraint=eastwest;" vertex="1" parent="oUUKeHMkKSvbWmKhPIZD-40">
          <mxGeometry y="40" width="180" height="20" as="geometry" />
        </mxCell>
        <mxCell id="oUUKeHMkKSvbWmKhPIZD-48" value="&lt;span style=&quot;font-family: Arial, Verdana, sans-serif; text-align: start;&quot;&gt;&lt;font style=&quot;font-size: 12px;&quot;&gt;10.195.0.0/16&lt;/font&gt;&lt;/span&gt;" style="shape=partialRectangle;html=1;whiteSpace=wrap;connectable=0;strokeColor=inherit;overflow=hidden;fillColor=none;top=0;left=0;bottom=0;right=0;pointerEvents=1;" vertex="1" parent="oUUKeHMkKSvbWmKhPIZD-47">
          <mxGeometry width="85" height="20" as="geometry">
            <mxRectangle width="85" height="20" as="alternateBounds" />
          </mxGeometry>
        </mxCell>
        <mxCell id="oUUKeHMkKSvbWmKhPIZD-49" value="ccp-tgw-att-peer" style="shape=partialRectangle;html=1;whiteSpace=wrap;connectable=0;strokeColor=inherit;overflow=hidden;fillColor=none;top=0;left=0;bottom=0;right=0;pointerEvents=1;" vertex="1" parent="oUUKeHMkKSvbWmKhPIZD-47">
          <mxGeometry x="85" width="95" height="20" as="geometry">
            <mxRectangle width="95" height="20" as="alternateBounds" />
          </mxGeometry>
        </mxCell>
        <mxCell id="oUUKeHMkKSvbWmKhPIZD-50" value="" style="shape=table;startSize=0;container=1;collapsible=0;childLayout=tableLayout;swimlaneFillColor=default;strokeWidth=0;" vertex="1" parent="oUUKeHMkKSvbWmKhPIZD-115">
          <mxGeometry x="230" y="310" width="170" height="60" as="geometry" />
        </mxCell>
        <mxCell id="oUUKeHMkKSvbWmKhPIZD-51" value="" style="shape=tableRow;horizontal=0;startSize=0;swimlaneHead=0;swimlaneBody=0;strokeColor=inherit;top=0;left=0;bottom=0;right=0;collapsible=0;dropTarget=0;fillColor=none;points=[[0,0.5],[1,0.5]];portConstraint=eastwest;" vertex="1" parent="oUUKeHMkKSvbWmKhPIZD-50">
          <mxGeometry width="170" height="20" as="geometry" />
        </mxCell>
        <mxCell id="oUUKeHMkKSvbWmKhPIZD-52" value="Route" style="shape=partialRectangle;html=1;whiteSpace=wrap;connectable=0;strokeColor=inherit;overflow=hidden;fillColor=#CCCCCC;top=0;left=0;bottom=0;right=0;pointerEvents=1;" vertex="1" parent="oUUKeHMkKSvbWmKhPIZD-51">
          <mxGeometry width="80" height="20" as="geometry">
            <mxRectangle width="80" height="20" as="alternateBounds" />
          </mxGeometry>
        </mxCell>
        <mxCell id="oUUKeHMkKSvbWmKhPIZD-53" value="Destination" style="shape=partialRectangle;html=1;whiteSpace=wrap;connectable=0;strokeColor=inherit;overflow=hidden;fillColor=#CCCCCC;top=0;left=0;bottom=0;right=0;pointerEvents=1;" vertex="1" parent="oUUKeHMkKSvbWmKhPIZD-51">
          <mxGeometry x="80" width="90" height="20" as="geometry">
            <mxRectangle width="90" height="20" as="alternateBounds" />
          </mxGeometry>
        </mxCell>
        <mxCell id="oUUKeHMkKSvbWmKhPIZD-54" value="" style="shape=tableRow;horizontal=0;startSize=0;swimlaneHead=0;swimlaneBody=0;strokeColor=inherit;top=0;left=0;bottom=0;right=0;collapsible=0;dropTarget=0;fillColor=none;points=[[0,0.5],[1,0.5]];portConstraint=eastwest;" vertex="1" parent="oUUKeHMkKSvbWmKhPIZD-50">
          <mxGeometry y="20" width="170" height="20" as="geometry" />
        </mxCell>
        <mxCell id="oUUKeHMkKSvbWmKhPIZD-55" value="10.1.0.0/16" style="shape=partialRectangle;html=1;whiteSpace=wrap;connectable=0;strokeColor=inherit;overflow=hidden;fillColor=none;top=0;left=0;bottom=0;right=0;pointerEvents=1;" vertex="1" parent="oUUKeHMkKSvbWmKhPIZD-54">
          <mxGeometry width="80" height="20" as="geometry">
            <mxRectangle width="80" height="20" as="alternateBounds" />
          </mxGeometry>
        </mxCell>
        <mxCell id="oUUKeHMkKSvbWmKhPIZD-56" value="vpc-att-1xxxx" style="shape=partialRectangle;html=1;whiteSpace=wrap;connectable=0;strokeColor=inherit;overflow=hidden;fillColor=none;top=0;left=0;bottom=0;right=0;pointerEvents=1;" vertex="1" parent="oUUKeHMkKSvbWmKhPIZD-54">
          <mxGeometry x="80" width="90" height="20" as="geometry">
            <mxRectangle width="90" height="20" as="alternateBounds" />
          </mxGeometry>
        </mxCell>
        <mxCell id="oUUKeHMkKSvbWmKhPIZD-57" value="" style="shape=tableRow;horizontal=0;startSize=0;swimlaneHead=0;swimlaneBody=0;strokeColor=inherit;top=0;left=0;bottom=0;right=0;collapsible=0;dropTarget=0;fillColor=none;points=[[0,0.5],[1,0.5]];portConstraint=eastwest;" vertex="1" parent="oUUKeHMkKSvbWmKhPIZD-50">
          <mxGeometry y="40" width="170" height="20" as="geometry" />
        </mxCell>
        <mxCell id="oUUKeHMkKSvbWmKhPIZD-58" value="10.2.0.0/16" style="shape=partialRectangle;html=1;whiteSpace=wrap;connectable=0;strokeColor=inherit;overflow=hidden;fillColor=none;top=0;left=0;bottom=0;right=0;pointerEvents=1;" vertex="1" parent="oUUKeHMkKSvbWmKhPIZD-57">
          <mxGeometry width="80" height="20" as="geometry">
            <mxRectangle width="80" height="20" as="alternateBounds" />
          </mxGeometry>
        </mxCell>
        <mxCell id="oUUKeHMkKSvbWmKhPIZD-59" value="vpc-att-2xxxx" style="shape=partialRectangle;html=1;whiteSpace=wrap;connectable=0;strokeColor=inherit;overflow=hidden;fillColor=none;top=0;left=0;bottom=0;right=0;pointerEvents=1;" vertex="1" parent="oUUKeHMkKSvbWmKhPIZD-57">
          <mxGeometry x="80" width="90" height="20" as="geometry">
            <mxRectangle width="90" height="20" as="alternateBounds" />
          </mxGeometry>
        </mxCell>
        <mxCell id="oUUKeHMkKSvbWmKhPIZD-80" value="" style="shape=table;startSize=0;container=1;collapsible=0;childLayout=tableLayout;swimlaneFillColor=default;strokeWidth=0;" vertex="1" parent="oUUKeHMkKSvbWmKhPIZD-115">
          <mxGeometry x="270" y="210" width="180" height="60" as="geometry" />
        </mxCell>
        <mxCell id="oUUKeHMkKSvbWmKhPIZD-81" value="" style="shape=tableRow;horizontal=0;startSize=0;swimlaneHead=0;swimlaneBody=0;strokeColor=inherit;top=0;left=0;bottom=0;right=0;collapsible=0;dropTarget=0;fillColor=none;points=[[0,0.5],[1,0.5]];portConstraint=eastwest;" vertex="1" parent="oUUKeHMkKSvbWmKhPIZD-80">
          <mxGeometry width="180" height="20" as="geometry" />
        </mxCell>
        <mxCell id="oUUKeHMkKSvbWmKhPIZD-82" value="Route" style="shape=partialRectangle;html=1;whiteSpace=wrap;connectable=0;strokeColor=inherit;overflow=hidden;fillColor=#CCCCCC;top=0;left=0;bottom=0;right=0;pointerEvents=1;" vertex="1" parent="oUUKeHMkKSvbWmKhPIZD-81">
          <mxGeometry width="85" height="20" as="geometry">
            <mxRectangle width="85" height="20" as="alternateBounds" />
          </mxGeometry>
        </mxCell>
        <mxCell id="oUUKeHMkKSvbWmKhPIZD-83" value="Destination" style="shape=partialRectangle;html=1;whiteSpace=wrap;connectable=0;strokeColor=inherit;overflow=hidden;fillColor=#CCCCCC;top=0;left=0;bottom=0;right=0;pointerEvents=1;" vertex="1" parent="oUUKeHMkKSvbWmKhPIZD-81">
          <mxGeometry x="85" width="95" height="20" as="geometry">
            <mxRectangle width="95" height="20" as="alternateBounds" />
          </mxGeometry>
        </mxCell>
        <mxCell id="oUUKeHMkKSvbWmKhPIZD-84" value="" style="shape=tableRow;horizontal=0;startSize=0;swimlaneHead=0;swimlaneBody=0;strokeColor=inherit;top=0;left=0;bottom=0;right=0;collapsible=0;dropTarget=0;fillColor=none;points=[[0,0.5],[1,0.5]];portConstraint=eastwest;" vertex="1" parent="oUUKeHMkKSvbWmKhPIZD-80">
          <mxGeometry y="20" width="180" height="20" as="geometry" />
        </mxCell>
        <mxCell id="oUUKeHMkKSvbWmKhPIZD-85" value="&lt;span style=&quot;font-family: Arial, Verdana, sans-serif; text-align: start;&quot;&gt;&lt;font style=&quot;font-size: 12px;&quot;&gt;10.195.0.0/16&lt;/font&gt;&lt;/span&gt;" style="shape=partialRectangle;html=1;whiteSpace=wrap;connectable=0;strokeColor=inherit;overflow=hidden;fillColor=none;top=0;left=0;bottom=0;right=0;pointerEvents=1;" vertex="1" parent="oUUKeHMkKSvbWmKhPIZD-84">
          <mxGeometry width="85" height="20" as="geometry">
            <mxRectangle width="85" height="20" as="alternateBounds" />
          </mxGeometry>
        </mxCell>
        <mxCell id="oUUKeHMkKSvbWmKhPIZD-86" value="vpc-att-shrd-conti" style="shape=partialRectangle;html=1;whiteSpace=wrap;connectable=0;strokeColor=inherit;overflow=hidden;fillColor=none;top=0;left=0;bottom=0;right=0;pointerEvents=1;" vertex="1" parent="oUUKeHMkKSvbWmKhPIZD-84">
          <mxGeometry x="85" width="95" height="20" as="geometry">
            <mxRectangle width="95" height="20" as="alternateBounds" />
          </mxGeometry>
        </mxCell>
        <mxCell id="oUUKeHMkKSvbWmKhPIZD-87" value="" style="shape=tableRow;horizontal=0;startSize=0;swimlaneHead=0;swimlaneBody=0;strokeColor=inherit;top=0;left=0;bottom=0;right=0;collapsible=0;dropTarget=0;fillColor=none;points=[[0,0.5],[1,0.5]];portConstraint=eastwest;" vertex="1" parent="oUUKeHMkKSvbWmKhPIZD-80">
          <mxGeometry y="40" width="180" height="20" as="geometry" />
        </mxCell>
        <mxCell id="oUUKeHMkKSvbWmKhPIZD-88" value="0.0.0.0/0" style="shape=partialRectangle;html=1;whiteSpace=wrap;connectable=0;strokeColor=inherit;overflow=hidden;fillColor=none;top=0;left=0;bottom=0;right=0;pointerEvents=1;" vertex="1" parent="oUUKeHMkKSvbWmKhPIZD-87">
          <mxGeometry width="85" height="20" as="geometry">
            <mxRectangle width="85" height="20" as="alternateBounds" />
          </mxGeometry>
        </mxCell>
        <mxCell id="oUUKeHMkKSvbWmKhPIZD-89" value="Blackhole" style="shape=partialRectangle;html=1;whiteSpace=wrap;connectable=0;strokeColor=inherit;overflow=hidden;fillColor=#E6E6E6;top=0;left=0;bottom=0;right=0;pointerEvents=1;" vertex="1" parent="oUUKeHMkKSvbWmKhPIZD-87">
          <mxGeometry x="85" width="95" height="20" as="geometry">
            <mxRectangle width="95" height="20" as="alternateBounds" />
          </mxGeometry>
        </mxCell>
        <mxCell id="oUUKeHMkKSvbWmKhPIZD-95" value="" style="endArrow=classic;html=1;rounded=1;entryX=0.225;entryY=-0.027;entryDx=0;entryDy=0;entryPerimeter=0;edgeStyle=elbowEdgeStyle;fillColor=#dae8fc;strokeColor=#6c8ebf;" edge="1" parent="oUUKeHMkKSvbWmKhPIZD-115">
          <mxGeometry width="50" height="50" relative="1" as="geometry">
            <mxPoint x="720" y="340" as="sourcePoint" />
            <mxPoint x="610" y="339.83" as="targetPoint" />
          </mxGeometry>
        </mxCell>
        <mxCell id="oUUKeHMkKSvbWmKhPIZD-96" value="&lt;div&gt;Account A&lt;/div&gt;&lt;b&gt;10.1.0.0/16&lt;/b&gt;" style="text;html=1;align=center;verticalAlign=middle;whiteSpace=wrap;rounded=0;" vertex="1" parent="oUUKeHMkKSvbWmKhPIZD-115">
          <mxGeometry x="170" width="60" height="30" as="geometry" />
        </mxCell>
        <mxCell id="oUUKeHMkKSvbWmKhPIZD-98" value="&lt;div&gt;Account B&lt;/div&gt;&lt;b&gt;10.2.0.0/16&lt;/b&gt;" style="text;html=1;align=center;verticalAlign=middle;whiteSpace=wrap;rounded=0;" vertex="1" parent="oUUKeHMkKSvbWmKhPIZD-115">
          <mxGeometry x="340" width="60" height="30" as="geometry" />
        </mxCell>
        <mxCell id="oUUKeHMkKSvbWmKhPIZD-99" value="&lt;div&gt;Conti Shared&lt;/div&gt;&lt;b&gt;10.230.0.0/16&lt;/b&gt;" style="text;html=1;align=center;verticalAlign=middle;whiteSpace=wrap;rounded=0;" vertex="1" parent="oUUKeHMkKSvbWmKhPIZD-115">
          <mxGeometry x="680" y="230" width="70" height="30" as="geometry" />
        </mxCell>
        <mxCell id="oUUKeHMkKSvbWmKhPIZD-100" value="&lt;b&gt;&lt;font style=&quot;font-size: 16px;&quot;&gt;Conti RT&lt;/font&gt;&lt;/b&gt;" style="text;html=1;align=center;verticalAlign=middle;whiteSpace=wrap;rounded=0;" vertex="1" parent="oUUKeHMkKSvbWmKhPIZD-115">
          <mxGeometry x="170" y="225" width="60" height="30" as="geometry" />
        </mxCell>
        <mxCell id="oUUKeHMkKSvbWmKhPIZD-101" value="&lt;b&gt;&lt;font style=&quot;font-size: 16px;&quot;&gt;Main RT&lt;/font&gt;&lt;/b&gt;" style="text;html=1;align=center;verticalAlign=middle;whiteSpace=wrap;rounded=0;" vertex="1" parent="oUUKeHMkKSvbWmKhPIZD-115">
          <mxGeometry x="150" y="325" width="60" height="30" as="geometry" />
        </mxCell>
        <mxCell id="oUUKeHMkKSvbWmKhPIZD-102" value="" style="sketch=0;points=[[0,0,0],[0.25,0,0],[0.5,0,0],[0.75,0,0],[1,0,0],[0,1,0],[0.25,1,0],[0.5,1,0],[0.75,1,0],[1,1,0],[0,0.25,0],[0,0.5,0],[0,0.75,0],[1,0.25,0],[1,0.5,0],[1,0.75,0]];outlineConnect=0;fontColor=#232F3E;fillColor=#8C4FFF;strokeColor=#ffffff;dashed=0;verticalLabelPosition=bottom;verticalAlign=top;align=center;html=1;fontSize=12;fontStyle=0;aspect=fixed;shape=mxgraph.aws4.resourceIcon;resIcon=mxgraph.aws4.transit_gateway;" vertex="1" parent="oUUKeHMkKSvbWmKhPIZD-115">
          <mxGeometry x="390" y="450" width="50" height="50" as="geometry" />
        </mxCell>
        <mxCell id="oUUKeHMkKSvbWmKhPIZD-103" value="&lt;div&gt;CCP TGW&lt;/div&gt;&lt;b&gt;10.195.0.0/16&lt;/b&gt;" style="text;html=1;align=center;verticalAlign=middle;whiteSpace=wrap;rounded=0;" vertex="1" parent="oUUKeHMkKSvbWmKhPIZD-115">
          <mxGeometry x="380" y="510" width="70" height="30" as="geometry" />
        </mxCell>
        <mxCell id="oUUKeHMkKSvbWmKhPIZD-114" value="" style="group;strokeWidth=5;" vertex="1" connectable="0" parent="oUUKeHMkKSvbWmKhPIZD-115">
          <mxGeometry x="400" y="380" width="30.230000000000018" height="68.67000000000002" as="geometry" />
        </mxCell>
        <mxCell id="oUUKeHMkKSvbWmKhPIZD-110" value="" style="endArrow=none;html=1;rounded=0;entryX=0.561;entryY=1.011;entryDx=0;entryDy=0;entryPerimeter=0;exitX=0.181;exitY=-0.009;exitDx=0;exitDy=0;exitPerimeter=0;fillColor=#dae8fc;strokeColor=#6c8ebf;" edge="1" parent="oUUKeHMkKSvbWmKhPIZD-114">
          <mxGeometry width="50" height="50" relative="1" as="geometry">
            <mxPoint y="68.67000000000002" as="sourcePoint" />
            <mxPoint x="0.2300000000000182" as="targetPoint" />
          </mxGeometry>
        </mxCell>
        <mxCell id="oUUKeHMkKSvbWmKhPIZD-111" value="" style="endArrow=none;html=1;rounded=0;entryX=0.561;entryY=1.011;entryDx=0;entryDy=0;entryPerimeter=0;exitX=0.181;exitY=-0.009;exitDx=0;exitDy=0;exitPerimeter=0;fillColor=#dae8fc;strokeColor=#6c8ebf;" edge="1" parent="oUUKeHMkKSvbWmKhPIZD-114">
          <mxGeometry width="50" height="50" relative="1" as="geometry">
            <mxPoint x="10" y="68.67000000000002" as="sourcePoint" />
            <mxPoint x="10.230000000000018" as="targetPoint" />
          </mxGeometry>
        </mxCell>
        <mxCell id="oUUKeHMkKSvbWmKhPIZD-112" value="" style="endArrow=none;html=1;rounded=0;entryX=0.561;entryY=1.011;entryDx=0;entryDy=0;entryPerimeter=0;exitX=0.181;exitY=-0.009;exitDx=0;exitDy=0;exitPerimeter=0;fillColor=#dae8fc;strokeColor=#6c8ebf;" edge="1" parent="oUUKeHMkKSvbWmKhPIZD-114">
          <mxGeometry width="50" height="50" relative="1" as="geometry">
            <mxPoint x="20" y="68.67000000000002" as="sourcePoint" />
            <mxPoint x="20.230000000000018" as="targetPoint" />
          </mxGeometry>
        </mxCell>
        <mxCell id="oUUKeHMkKSvbWmKhPIZD-113" value="" style="endArrow=none;html=1;rounded=0;entryX=0.561;entryY=1.011;entryDx=0;entryDy=0;entryPerimeter=0;exitX=0.181;exitY=-0.009;exitDx=0;exitDy=0;exitPerimeter=0;fillColor=#dae8fc;strokeColor=#6c8ebf;" edge="1" parent="oUUKeHMkKSvbWmKhPIZD-114">
          <mxGeometry width="50" height="50" relative="1" as="geometry">
            <mxPoint x="30" y="68.67000000000002" as="sourcePoint" />
            <mxPoint x="30.230000000000018" as="targetPoint" />
          </mxGeometry>
        </mxCell>
      </root>
    </mxGraphModel>
  </diagram>
</mxfile>
